Patient4_TMGait_0pt3_01_right_02_EMG.mot
version=1
nRows=36
nColumns=33
inDegrees=no
endheader
time	1LAddLong	2LGlutMax	3LGlutMed	4LIliopsoas	5LSemiMemb	6LBicFemLong	7LRecFem	8LVastMed	9LVastLat	10LGasMed	11LTibAnt	12lTibPost	13LPeroneusLong	14LSol	15LExtDigLong	16LFlexDigLong	17RAddLong	18RGlutMax	19RGlutMed	20RIliopsoas	21RSemiMemb	22RBicFemLong	23RRecFem	24RVastMed	25RVastLat	26RGasMed	27RTibAnt	28RTibPost	29RPeroneusLong	30RSol	31RExtDigLong	32RFlexDigLong
2.12	0.007629	0.22903	-0.085449	0.005798	0.017548	0.28091	0.15396	-0.001984	0.002136	0.012054	0.054321	-0.011444	-0.3772	0.01358	-0.1619	-0.009308	0.011139	-0.10178	-0.31754	-0.1207	0.070343	-0.023499	0.15167	0.002136	-0.007782	-0.00885	0.15228	-0.011292	-0.032196	0.013733	-0.001831	0.001526
2.121	0.003967	0.21286	0.004425	0.015717	0.003204	-0.00824	0.17441	-0.009766	0.089874	0.009613	0.10849	-0.013885	-0.31662	0.058441	-0.15167	-0.001678	0.058594	-0.13779	-0.25711	-0.11459	0.085907	-0.016632	0.13443	-0.048523	-0.01709	-0.009155	0.22919	-0.012512	-0.12436	0.029449	0	-0.010834
2.122	0.002747	0.19409	-0.018158	0.019836	-0.001068	-0.14526	0.14786	-0.006104	0.1004	0.009308	0.14587	-0.014801	0.16663	0.13214	-0.064697	0.010223	0.063934	-0.14069	-0.40573	-0.091553	0.086975	-0.006104	0.12955	0.004425	-0.019073	-0.014801	0.19623	-0.006561	-0.16968	0.025177	-0.000458	-0.000763
2.123	0.007782	0.2385	0.14206	0.031586	0.024872	-0.10513	0.077972	-0.012054	0.086517	-0.011902	0.18402	-0.018921	0.31845	0.18753	-0.059509	0.000153	0.034637	-0.13641	-0.30716	-0.018005	0.091705	-0.009308	0.071716	0.037384	-0.014496	-0.009003	-0.10315	-0.009766	-0.17044	-0.016022	-0.001526	-0.001221
2.124	-0.000305	0.19455	0.096893	0.008698	0.003815	-0.015717	0.1088	-0.009766	0.08194	0.012817	0.11322	-0.023499	-0.069275	0.11353	-0.12604	-0.007019	-0.00473	-0.11307	-0.29282	0.027466	0.10193	-0.00412	0.10315	0.088196	-0.00061	-0.000916	-0.31265	-0.009766	-0.16571	-0.036163	0.006104	-0.007019
2.125	0.007172	0.18295	0.072784	-0.006714	0.02121	-0.3743	0.10605	-0.00412	0.056458	-0.025787	0.072174	-0.027466	-0.60669	0.09201	-0.015259	0.002899	-0.00885	-0.11749	-0.2243	0.084991	0.083771	-0.007477	0.067291	0.082855	-0.00946	0.00824	-0.354	-0.007935	0.0177	-0.088959	-0.003204	-0.004272
2.126	0.020447	0.18631	-0.002441	0.018768	0.02594	-0.6015	0.098572	-0.008545	0.062103	-0.049133	-0.20432	-0.029449	-0.20126	-0.081482	-0.20203	-0.012207	-0.035095	-0.121	-0.21088	0.072784	0.073242	0.003357	0.083466	0.074768	0	0.003662	-0.26306	-0.010223	0.11887	-0.055847	-0.001831	-0.007935
2.127	0.018616	0.2269	0.093842	0.00824	0.021057	-0.36865	0.079346	-0.007782	0.047302	0.006714	-0.062103	-0.020905	-0.2066	-0.093384	-0.13809	-0.015564	-0.072327	-0.12299	-0.18036	0.041199	0.063477	0.010071	0.077362	0.054016	-0.016327	0.005035	-0.10101	-0.012054	0.091095	0.033417	0.000305	-0.01297
2.128	0.016022	0.27542	0.26352	-0.028229	0.023499	-0.2243	0.10635	-0.000458	0.010529	0.026855	0.26276	-0.027313	0.03479	-0.11581	0.011749	-0.00885	-0.090332	-0.089569	-0.16205	-0.001221	0.059509	-0.003204	0.093842	0.036163	-0.001221	-0.006866	0.19882	-0.016632	-0.034485	0.13992	-0.002289	-0.006409
2.129	0.015564	0.18616	0.090179	-0.01709	0.019379	-0.10635	0.083771	0.000305	-0.006409	0.00885	-0.000763	-0.024719	0.048676	-0.04303	0.20783	-0.000153	-0.085754	-0.11368	-0.13718	-0.025177	0.055847	-0.004272	0.090942	0.0177	-0.005951	-0.003967	0.10956	-0.010681	-0.066223	0.20432	-0.005493	-0.00946
2.13	0.019989	0.20844	0.07431	-0.011597	0.027313	0.086823	0.041962	0.005951	-0.00473	0.005035	0.045013	-0.029297	-0.017853	-0.061951	0.12772	0.00351	-0.044708	-0.084686	-0.10239	-0.11231	0.060425	0.000153	0.1088	-0.034027	-0.003815	-0.008545	-0.41565	-0.019073	0.003662	0.19669	-0.002136	-0.007935
2.131	0.006104	0.23086	0.16007	0.00946	0.00946	0.27649	0.090332	0.004272	0.020599	0.001831	-0.14236	-0.034485	0.24811	-0.001068	0.33661	-0.015259	-0.049744	-0.070648	-0.023651	-0.159	0.070801	-0.001984	0.11612	-0.02182	-0.00473	-0.009155	-0.54886	-0.020142	-0.016174	0.10864	-0.002441	-0.014038
2.132	0.00824	0.17761	0.11459	0.018921	0.018158	0.30533	0.0914	0.000458	0.058136	0.066681	-0.23712	-0.029602	0.28305	-0.072327	-0.072021	-0.015564	-0.025635	-0.13733	-0.26657	-0.16281	0.071106	0.002289	0.10315	-0.036316	0.004883	-0.006104	-0.74738	-0.01709	-0.03891	-0.049438	-0.002899	-0.002136
2.133	0.00473	0.13168	0.039978	0.049438	0.015259	0.27374	0.071259	-0.002899	-0.015106	0.063477	-0.15518	-0.036774	0.1413	-0.062408	-0.28503	0.003357	-0.00351	-0.12863	-0.38498	-0.08728	0.092163	0.033722	0.10437	-0.004578	0.00824	0.000916	-0.74127	-0.014496	0.00946	-0.10727	-0.007019	-0.009155
2.134	0.007324	0.15747	-0.031586	0.006256	0.002747	0.23148	0.049438	-0.001068	-0.032806	0.006866	-0.088196	-0.026398	0.42236	0.075226	-0.051575	-0.002136	0.018616	-0.13733	-0.39063	-0.012512	0.11383	0.04776	0.073242	0.076904	0.027466	-0.00351	-0.32562	-0.012512	-0.006256	-0.12466	-0.002136	-0.000305
2.135	-0.003357	0.15656	0.00412	-0.023804	0.005035	0.081329	0.06424	-0.011139	-0.003204	-0.052643	-0.076599	-0.029297	0.522	0.13138	0.089264	0.002594	0.019226	-0.17563	-0.28686	0.013275	0.12405	0.056	0.062561	0.11398	0.034637	0.001373	0.59815	-0.016937	-0.030823	-0.10391	0.000305	-0.00061
2.136	0.002289	0.10269	-0.090485	0.009613	0.011597	-0.4425	0.10773	0.000458	-0.020752	0.006866	-0.019531	-0.025177	-0.84961	0.15747	-0.14603	-0.000916	0.039215	-0.1651	-0.22842	0.11063	0.12421	0.029907	0.092926	0.062714	0.036011	0.004883	0.90851	-0.022736	-0.041046	-0.11536	-0.000916	0.001526
2.137	0.011597	0.057068	-0.19943	0.012207	0.019379	-0.14771	0.080414	0.002289	-0.074158	0.058594	-0.001373	-0.025787	-0.54932	0.086517	-0.14038	0.00351	0.044098	-0.16434	-0.21866	0.21881	0.11566	0.023956	0.098419	0.083466	0.015411	0.001526	0.90271	-0.019073	-0.062408	-0.12604	-0.007629	0.000153
2.138	0.006714	0.02594	-0.20432	0.019531	0.020599	-0.06134	0.094147	0.027161	-0.039215	0.028534	-0.040283	-0.016174	0.80597	-0.042267	-0.14969	-0.00061	0.033417	-0.15381	-0.065765	0.17654	0.1004	0.006714	0.053406	0.036774	0.005951	0.001984	0.64987	-0.013275	-0.057373	-0.072784	-0.006409	-0.002747
2.139	0.001373	-0.009308	-0.043793	0.00824	0.009766	-0.24185	0.065613	0.021057	0.090027	-0.00351	-0.006256	-0.014343	0.4335	-0.026093	-0.091705	0.006409	0.016785	-0.14252	-0.09201	0.13763	0.072784	-0.019531	0.10925	-0.001526	-0.002441	-0.005188	0.29511	-0.015717	0.009613	-0.075531	-0.002899	0.000458
2.14	-0.007782	-0.057678	0.014954	0.006866	0.024567	-0.21774	0.052185	0.005493	0.12299	-0.022583	0.032806	-0.016632	-0.38574	-0.033569	0.028076	0.011139	0.006256	-0.14435	-0.35126	0.12146	0.063934	-0.031128	0.080261	-0.006409	-0.025024	0.003815	-0.7634	-0.019226	0.10239	-0.034485	-0.001984	-0.001831
2.141	-0.002136	-0.027924	-0.046082	0.001831	0.031128	-0.14206	0.091095	0.004272	0.064697	0.016632	0.049591	-0.011139	-0.42664	-0.30868	0.074615	-0.000763	-0.010223	-0.10132	-0.41306	0.019073	0.060425	-0.045319	0.099945	-0.037537	-0.031433	0.000153	-0.504	-0.019836	0.034485	0.073853	0.000305	-0.000458
2.142	-0.003357	-0.043182	-0.10056	-0.013428	0.01236	-0.02594	0.053558	-0.008392	0.05249	0.033417	0.025177	-0.011597	0.037384	-0.44418	0.06958	-0.000458	-0.004578	-0.15472	-0.29373	-0.009308	0.056	-0.046997	0.1355	-0.027924	-0.032349	-0.00473	0.13275	-0.020905	-0.10361	0.11795	-0.001221	-0.010071
2.143	0.004578	-0.058899	-0.072021	-0.016632	0.021057	-0.10315	0.001984	-0.009766	0.064392	-0.002441	-0.009918	-0.006866	0.044708	-0.23987	0.056152	0.002136	-0.007935	-0.087128	-0.2124	-0.030365	0.04776	-0.057983	0.11658	-0.015564	-0.032654	-0.006409	0.18631	-0.022736	-0.10178	0.069885	0.005951	-0.009918
2.144	0.012817	-0.06897	-0.08728	-0.019073	0.015411	-0.11917	0.045013	-0.023956	-0.016937	-0.017395	-0.001221	0.038757	-0.44357	0.040283	0	-0.000153	0.006866	-0.11368	-0.21698	0.002594	0.050049	-0.049896	0.081024	-0.003204	-0.015869	-0.014954	0.23132	-0.023346	-0.082855	0.10315	0.001221	-0.007019
2.145	0.011749	-0.073395	-0.073547	0.020905	0.020752	-0.054779	0.15091	-0.020599	-0.11963	-0.00412	0.008392	0.074158	-0.1384	0.014191	-0.0177	0.010834	0.007629	-0.10071	-0.19394	0.068054	0.052185	-0.024872	0.087738	0.003052	-0.02121	-0.012512	0.30731	-0.021667	-0.066681	0.012817	0.00061	-0.010986
2.146	0.00824	-0.05661	-0.043945	0.008545	0.010681	0.067902	0.17166	-0.005798	0.028229	0.004272	0.011444	0.077362	-0.12085	-0.10071	-0.012512	-0.00061	0.0177	-0.083008	-0.04837	0.045471	0.059052	-0.002899	0.10696	-0.002289	-0.019531	-0.013275	0.31815	-0.016785	0.001984	-0.075378	0.001526	-0.00412
2.147	0.00351	-0.008545	-0.1178	0.012665	0.009613	0.2272	0.14984	-0.010986	0.13519	-0.003052	0.005646	0.039368	-0.11154	-0.13428	-0.014954	0.006866	0.015564	-0.14282	-0.12405	0.00351	0.058289	-0.00885	0.082397	-0.009155	-0.023956	0.002899	0.26352	-0.017548	0.038147	-0.11139	-0.002747	-0.008698
2.148	0.007172	-0.039673	-0.085754	0.011597	0.021973	0.12161	0.072632	-0.007477	0.10696	-0.001373	0.009155	0.015106	-0.002899	0.006866	0.035248	0.022583	0.018616	-0.1561	-0.097351	-0.10437	0.055237	0.010223	0.08728	-0.028076	-0.013428	0.002747	0.14572	-0.017242	-0.074158	-0.16785	0	-0.002289
2.149	0.011902	-0.020905	0.10803	0.00946	0.014343	0.14236	0.071106	-0.00351	0.11231	0.023499	0.015869	-0.006561	-0.054016	0.00824	0.031433	0.018463	0.036469	-0.14282	0.015259	-0.080261	0.04776	0.012665	0.04837	-0.017242	-0.002289	0.005951	-0.20737	-0.018005	-0.14542	-0.2623	-0.00061	-0.008698
2.15	0.003204	-0.036163	0.14282	0.034943	0.010986	0.14526	0.0354	-0.004425	0.13962	0.031738	0.01297	-0.012665	-0.006256	-0.088806	0.012817	0.015411	0.033264	-0.16174	-0.13687	0.030212	0.053406	0.016937	0.057678	-0.006409	-0.00061	-0.000763	-0.36102	-0.016327	-0.32227	-0.26611	0.000153	-0.009155
2.151	0.007019	-0.017548	0.007782	0.009308	0.002136	0.168	-0.034943	-0.00885	0.19836	0.023041	-0.014496	-0.026855	-0.002289	-0.020142	0.084686	0.02655	0.018463	-0.11643	-0.24719	0.037384	0.051575	0.011292	0.033112	-0.016022	-0.007019	-0.006256	-0.14389	-0.01297	-0.21591	-0.26596	0.002441	-0.018768
2.152	0.012817	0.007782	0.07843	-0.004883	-0.001831	0.019836	-0.080872	-0.010223	0.049591	0.032959	-0.10788	-0.039825	-0.001831	0.066223	-0.043335	0.023193	-0.009918	-0.064545	-0.096893	-0.032349	0.058746	-0.000153	0.066833	-0.019531	-0.010834	0.002136	0.016327	-0.010529	0.009613	-0.22522	0.001221	-0.005493
2.153	0.016785	-0.003052	-0.048828	-0.015869	-0.011444	0.14786	-0.1297	-0.00351	-0.14435	0.028229	-0.1622	-0.04425	-0.058136	0.19913	0.45761	0.011444	-0.004578	-0.14832	-0.14755	-0.041962	0.062714	0.005188	0.061951	-0.03067	-0.012512	-0.000916	0.25284	-0.015259	0.20065	-0.14206	-0.002136	-0.004272
2.154	0.010834	-0.005646	-0.02243	-0.005646	-0.008087	0.30441	-0.11307	-0.007019	-0.22736	0.000916	-0.086365	-0.046692	-0.07019	0.19257	-0.27939	0.02594	0.005188	-0.19699	-0.22736	-0.017853	0.058289	0.013428	0.037231	-0.014648	-0.014954	-0.006561	0.15778	-0.010986	0.10895	-0.000458	-0.000153	-0.000916
2.155	0.006866	-0.029907	0.03891	-0.010223	-0.006561	0.28137	-0.04303	-0.006409	-0.09552	-0.009308	-0.03006	-0.053253	0.38864	0.19089	-0.18616	0.025787	0.014801	-0.16525	-0.10483	0.046387	0.080872	0.004272	0.046844	-0.021362	-0.011292	-0.010223	-0.32318	-0.010529	0.05188	0.27084	-0.006866	-0.000305
